Patient4_TMGait_0pt2_02_right_21_EMG.mot
version=1
nRows=30
nColumns=33
inDegrees=no
endheader
time	1LAddLong	2LGlutMax	3LGlutMed	4LIliopsoas	5LSemiMemb	6LBicFemLong	7LRecFem	8LVastMed	9LVastLat	10LGasMed	11LTibAnt	12lTibPost	13LPeroneusLong	14LSol	15LExtDigLong	16LFlexDigLong	17RAddLong	18RGlutMax	19RGlutMed	20RIliopsoas	21RSemiMemb	22RBicFemLong	23RRecFem	24RVastMed	25RVastLat	26RGasMed	27RTibAnt	28RTibPost	29RPeroneusLong	30RSol	31RExtDigLong	32RFlexDigLong
46.46	0.006104	-0.029449	0.091095	0.009613	0.010986	0.032654	0.08194	0.003815	0.053406	0.000305	-0.000458	-0.031586	-0.00473	0.022125	0.11459	0.000763	0.013733	0.019531	-0.12405	-0.00351	0.10986	-0.021667	-0.27603	-0.032501	0.016632	-0.000305	-0.23148	-0.00351	0.11292	-0.07843	-0.002136	0.002899
46.461	0.014038	0.005035	0.057068	0.043793	0.010986	0.044556	0.10468	0.039063	0.018616	0.007324	-0.016632	-0.037384	0.11948	0.030518	0.083618	-0.006409	0.006714	-0.018311	-0.31509	0.026398	0.10513	-0.02594	-0.2359	-0.074158	0.004883	-0.006866	-0.37384	-0.006256	-0.075836	0.030823	-0.006104	0
46.462	0.014648	0.019226	-0.031586	0.028534	0.020447	-0.022125	0.15884	0.078278	-0.028992	0.036621	0	-0.041962	-0.042725	0.013885	0.033112	0.001526	0.010376	-0.048065	-0.17716	0.098419	0.11215	-0.017395	-0.20493	-0.050659	-0.010681	-0.009766	-0.4425	-0.006409	0.20416	0.045929	-0.00351	0.000458
46.463	0.027924	0.081177	-0.030518	-0.014648	0.014191	-0.031891	0.14236	0.059204	-0.089417	0.054932	0.014191	-0.039978	-0.13519	-0.058594	-0.031891	0.007782	0.009155	-0.056	-0.057831	0.11597	0.11581	0.003662	-0.10544	-0.030365	-0.021667	-0.003052	-0.5484	-0.005798	0.50415	0.002441	-0.002747	0.01297
46.464	0.028687	0.07309	0.064697	-0.017853	0.015717	-0.036163	0.17197	0.018768	-0.25848	0.059204	-0.005951	-0.032959	-0.045471	-0.037537	-0.020294	0.011749	0.001373	-0.026093	-0.18707	-0.037231	0.12894	-0.023193	-0.047455	-0.008087	-0.020752	-0.000916	-0.39093	-0.011902	-0.22308	0.001526	-0.003967	0.006409
46.465	0.032196	0.054169	0.11261	0.006866	0.000916	0.024261	0.077972	-0.009766	-0.33005	0.066681	-0.007935	-0.037231	0.007172	-0.018768	-0.007629	0.005035	0.008392	0.023346	0.18234	-0.12894	0.14725	-0.027618	-0.02121	-0.019226	-0.018616	-0.010986	-0.32059	-0.005798	-0.032959	0.033417	-0.000916	0.002747
46.466	0.018311	0.034332	0.001526	0.002289	-0.007935	0.06073	0.070038	-0.036011	-0.27863	0.036011	-0.005035	-0.027771	0.080261	0.0383	0.067291	0.011139	0.013123	0.000916	0.13534	-0.05127	0.13275	-0.018616	-0.2063	0.021973	-0.006561	-0.004578	-0.52368	-0.007172	0.063934	0.047455	-0.001526	0.001984
46.467	0.010071	0.009003	-0.12146	-0.007935	-0.014648	0.17761	0.028229	-0.034637	-0.1294	-0.075989	0.007935	-0.033875	0.005035	0.009155	0.043945	0.001831	0.011139	0.000153	-0.26993	0.045776	0.13336	-0.04364	-0.32532	0.000458	-0.023499	0	-0.3038	-0.007324	0.12787	0.01236	-0.003204	-0.001984
46.468	-0.000153	-0.007629	-0.15289	-0.00061	-0.000916	0.27405	-0.046539	-0.019684	-0.001526	-0.081482	-0.002289	-0.023346	-0.103	0.010529	0.029907	0.014038	0.016479	-0.055389	-0.52002	0.010071	0.13809	-0.027466	-0.3537	0.009918	-0.023651	-0.00061	-0.093079	-0.004578	0.20111	-0.097504	-0.002289	-0.00824
46.469	-0.007782	-0.001678	-0.033417	0	-0.023193	0.23865	0.079193	-0.010681	0.005035	-0.028687	-0.007019	-0.008545	0.046234	0.024567	0.034485	0.00885	0.007019	0.025635	-0.48431	-0.013275	0.13825	-0.00946	-0.39825	-0.006714	-0.012054	-0.008545	-0.11063	-0.00946	-0.20218	-0.12634	-0.003357	-0.013275
46.47	-0.026093	0.015411	0.021362	0.002899	-0.028076	0.22644	0.16647	-0.016632	-0.11444	-0.024261	-0.016632	-0.011902	0.60226	0.046082	0.028687	0.002441	0.001373	0.077972	-0.048065	0.011749	0.13855	-0.023041	-0.4274	0.036926	-0.003815	-0.006561	-0.10056	-0.006866	-0.10986	-0.13565	-0.003967	-0.006256
46.471	-0.036316	0.014801	0.042725	0.016479	-0.011139	0.26764	0.24078	-0.012665	-0.15228	-0.012207	-0.019531	-0.029602	0.007629	0.067902	0.038605	0.002441	-0.00473	-0.015869	0.68893	0.062866	0.13962	0.001373	-0.38589	-0.009155	0.001678	-0.006561	0.40817	-0.007935	-0.06424	-0.16403	-0.008545	0.002136
46.472	-0.048065	0.045624	0.049896	-0.021973	-0.024109	0.26016	0.22903	0.012817	0.043488	-0.033569	0.004272	-0.034637	0.26916	0.075989	-0.003357	0.006561	-0.007019	-0.076599	-0.11261	0.099792	0.1445	0.012054	-0.36499	0	0.004883	0.004883	0.43732	-0.005951	0.36026	-0.24719	-0.001068	0.001831
46.473	-0.062866	0.055695	0.15152	-0.000916	-0.02243	0.083313	0.168	0.02121	0.20294	-0.005341	0.016479	-0.023041	-0.053558	0.019836	-0.064545	-0.002747	0.006561	-0.016937	-0.064697	0.040588	0.13886	-0.016479	-0.3624	-0.02655	0.006409	0.007782	0.040588	-0.007935	-0.015717	-0.177	-0.003967	-0.004272
46.474	-0.079193	0.063324	0.11841	-0.019226	-0.024261	0.009155	0.075684	0.029297	0.4039	-0.007477	-0.004883	-0.02182	-0.16769	0.000916	-0.064392	0.00824	0.007172	-0.037384	-0.32532	-0.069885	0.14023	-0.019989	-0.29053	0.028839	0.004425	-0.005951	-0.069885	-0.012512	-0.21622	-0.020752	-0.001526	-0.00061
46.475	-0.083771	0.06485	0.11688	-0.017548	-0.024109	0.058746	0.087433	0.003204	0.45685	0.01358	-0.016327	-0.021515	0.17883	-0.083466	-0.12863	-0.013733	0.010071	-0.009613	-0.50781	-0.16281	0.14847	-0.016479	-0.13351	0.055847	-0.012817	0.000153	-0.03479	-0.009003	0.046234	-0.10819	-0.003967	0.001831
46.476	-0.079041	0.076141	0.10162	-0.000458	-0.019073	-0.0177	0.028992	-0.001221	0.35217	0.016785	0.007324	-0.016632	0.074615	-0.002594	-0.004883	0.011292	0.004578	-0.013123	-0.39856	-0.19134	0.1474	0.000763	-0.085297	0.01297	-0.019073	-0.005951	-0.088043	-0.00946	0.008392	-0.024719	-0.011292	0.010376
46.477	-0.07782	0.084381	0.066223	0.026245	-0.029602	0.14358	-0.099335	0.004883	0.36957	-0.001984	0.017548	-0.019531	-0.18982	0.054474	0.035553	0.001526	0.004578	-0.032654	-0.41031	-0.2446	0.13992	-0.010376	-0.15427	0.016327	-0.024414	0.002441	0.13046	-0.015106	-0.27847	0.046692	-0.006409	0.00473
46.478	-0.044708	0.037079	0.017395	0.022278	-0.014496	-0.027924	-0.22644	0.003967	0.37521	-0.023956	0.010681	-0.008545	-0.19058	0.01358	0.032196	-0.000763	0.005341	-0.03479	-0.25589	-0.19867	0.15472	-0.017395	-0.36163	-0.030365	-0.018158	-0.000458	0.23086	-0.006561	-0.16296	0.042877	-0.002289	0.009766
46.479	0	-0.017242	-0.022125	0.005341	-0.00351	-0.15656	-0.30197	0.013885	0.35126	0.01297	-0.008545	0.000916	-0.12405	-0.013733	-0.051422	-0.020142	0.003662	-0.059509	-0.19669	-0.079956	0.14038	-0.00946	-0.28961	-0.050507	-0.017548	0.003357	0.13016	-0.008392	0.064697	0.061188	-0.007629	0.003662
46.48	0.031433	-0.01709	0.044708	0.038452	0.021515	-0.24078	-0.23361	0.028687	0.28519	0.03418	-0.015106	-0.034485	-0.034637	0.10223	-0.010376	-0.027313	-0.015869	-0.046539	-0.28717	0.10376	0.14374	-0.005798	-0.22293	-0.041046	-0.023499	0.000458	0.12711	-0.005646	0.54718	0.002594	-0.001068	0.00473
46.481	0.053864	-0.021515	-0.028839	0.018311	0.042725	-0.10971	-0.060272	0.039368	0.052338	0.048065	-0.007324	-0.037079	0.005341	0.084534	0.016632	-0.069122	-0.006561	-0.028534	-0.2475	0.21927	0.13443	0.007782	-0.21088	-0.024109	-0.02243	0.00885	0.066528	-0.010071	-0.090179	-0.006409	-0.011444	0.005646
46.482	0.06012	-0.043793	-0.10071	0.025024	0.046997	-0.057373	0.11047	0.028381	-0.002441	0.049438	-0.004883	-0.020905	0.06073	-0.021973	-0.007629	-0.040131	-0.019989	-0.004425	-0.24521	0.37064	0.1416	0.016174	-0.2626	-0.001678	0.002136	0.003052	-0.17716	-0.007782	-0.12634	-0.018158	-0.006256	-0.010071
46.483	0.077667	-0.052795	-0.064392	0.001373	0.054779	-0.081177	0.056458	0.013733	-0.22079	0.074158	0.006104	-0.017395	0.050812	-0.032959	0.022125	-0.055237	-0.029144	-0.069275	-0.46173	0.27588	0.14267	-0.007019	-0.24475	0.011902	-0.002441	-0.001984	-0.13901	-0.005646	-0.036926	0.017242	-0.002899	-0.006256
46.484	0.1004	-0.0354	-0.090332	0.003204	0.047455	-0.031586	-0.071411	0.00412	-0.44678	0.018616	-0.003357	-0.018158	0.086365	0.045166	0.06485	-0.038147	-0.018158	0.007172	-0.60211	0.077972	0.13916	0.008087	-0.21637	0.009766	-0.006561	-0.007477	-0.054474	-0.006409	-0.16296	0.076904	-0.007324	-0.009003
46.485	0.10437	-0.00885	-0.072479	0.011139	0.050812	0.007324	-0.094757	0.003662	-0.4773	-0.10162	-0.008545	-0.015869	0.10513	0.061951	0.008392	-0.041351	-0.024719	-0.047607	-0.36468	0.05661	0.14496	0.00946	-0.17364	0.000153	0.00351	-0.001831	0.12192	-0.003815	-0.25864	0.018463	-0.003662	-0.013123
46.486	0.098724	0.005493	0.046387	-0.003204	0.046387	0.065308	-0.016937	-0.002441	-0.43518	-0.19089	-0.00412	-0.013733	0.031281	0.068512	-0.021057	-0.056458	-0.020905	-0.005493	-0.032501	0.032654	0.14053	0.014648	-0.17746	-0.020905	-0.009003	-0.001526	0.28824	0.000153	-0.10757	0.002594	0	-0.007019
46.487	0.082397	0.042725	0.1329	0.026398	0.035858	0.1593	0.040436	-0.006561	-0.32837	-0.11215	-0.014343	-0.028534	-0.027466	0.12421	0.022888	-0.051117	-0.009766	-0.043182	-0.10269	-0.001678	0.13931	0.011292	-0.27344	-0.020599	-0.005798	-0.002899	0.23483	-0.004272	-0.032349	0.013733	-0.003357	-0.00946
46.488	0.08194	0.071869	-0.043488	0.022888	0.03067	0.2562	0.039368	-0.029602	-0.26367	-0.040131	0.001526	-0.018311	-0.021973	0.27512	0.036621	-0.085602	0.002441	0.00885	1.013	-0.062256	0.1413	0.016479	-0.33279	0.003204	-0.019684	0.005188	0.39871	0.005341	0.31998	-0.019989	-0.001526	0.002136
46.489	0.075684	0.10651	-0.05127	0.002136	0.023804	0.29327	0.088654	0.023346	-0.050812	0.072021	0.00351	0.059967	-0.033722	0.22903	0.000458	-0.078278	-0.006714	-0.070343	0.49225	-0.068359	0.13489	0.029602	-0.3891	-0.004425	0.006409	0.006104	0.45334	0.009155	-0.049591	0.02243	0	-0.000153
